<svg width="294" height="58" viewBox="0 0 294 58" fill="none" xmlns="http://www.w3.org/2000/svg">
<mask id="path-1-outside-1_242_4" maskUnits="userSpaceOnUse" x="0" y="0" width="294" height="58" fill="black">
<rect fill="white" width="294" height="58"/>
<path d="M37.368 20.296C37.368 32.032 28.368 36.856 18.072 35.992L15.552 35.776C15.624 44.992 16.272 51.688 16.92 55C12.384 54.64 7.776 54.64 3.24 55C3.96 50.608 4.608 41.032 4.608 31.168V25.768C4.608 16.984 3.96 8.488 3.24 4.6C8.496 4.96 11.664 4.24 19.152 3.88C29.808 3.376 37.368 9.496 37.368 20.296ZM15.552 26.56L17.856 26.776C22.176 27.208 25.848 24.76 25.848 20.584C25.848 16.768 23.832 13.744 19.44 13.744H15.912C15.696 17.2 15.552 22.24 15.552 26.56ZM59.6092 55.72C47.8732 55.72 41.6812 46.432 41.6812 37C41.6812 27.568 47.8732 18.28 59.6092 18.28C71.3452 18.28 77.5372 27.568 77.5372 37C77.5372 46.432 71.3452 55.72 59.6092 55.72ZM59.6092 27.856C54.9292 27.856 53.2012 33.04 53.2012 37C53.2012 40.96 54.9292 46.144 59.6092 46.144C64.2892 46.144 66.0172 40.96 66.0172 37C66.0172 33.04 64.2892 27.856 59.6092 27.856ZM102.779 33.76C102.779 28.216 102.059 26.272 99.6109 26.272C97.3069 26.272 96.5869 28.432 96.4429 30.952C96.2989 32.68 96.2989 34.336 96.2989 35.992V39.52C96.2989 45.928 96.9469 52.12 97.6669 55C93.1309 54.64 88.5229 54.64 83.9869 55C84.7069 51.976 85.3549 45.352 85.3549 38.512V34.84C85.3549 28.72 84.7069 22.888 83.9869 19C88.5229 19.36 93.1309 19.36 97.6669 19C97.5229 19.72 97.3789 20.44 97.3069 21.232C99.8269 19.288 102.995 18.28 105.371 18.28C111.779 18.28 113.723 23.536 113.723 32.32C110.123 32.464 106.379 32.896 102.779 33.76ZM119.509 44.056C119.869 33.544 119.869 22.744 119.509 11.8C123.613 10.648 127.861 9.136 131.965 7.264C131.461 9.28 131.029 14.248 130.741 19.36C137.077 19.648 143.701 19.648 150.037 19.216C145.501 17.416 144.637 12.088 145.645 8.632C146.941 4.312 151.261 2.224 157.309 2.656C159.325 2.8 162.709 3.304 164.869 3.736C164.653 7.336 164.653 11.008 164.869 13.528C163.429 12.808 159.973 12.088 158.605 12.088C156.013 12.088 154.789 14.536 155.869 16.336C156.373 17.272 157.957 18.568 159.037 19.216C161.701 19.216 164.437 19.144 167.029 19C166.669 21.016 166.669 23.176 167.029 25.192C164.581 25.048 162.061 24.976 159.541 24.976C159.397 36.496 159.973 48.448 161.053 55C156.517 54.64 151.909 54.64 147.373 55C148.165 50.104 148.741 39.808 148.741 30.52V24.976C142.765 24.616 136.501 24.544 130.525 24.904C130.453 26.848 130.453 28.792 130.453 30.376V41.608C130.453 44.992 131.893 45.712 133.189 46.144C134.701 46.648 139.021 45.568 140.677 44.488C140.317 47.728 140.317 51.112 140.677 54.352C138.733 55.216 134.485 55.72 132.613 55.72C123.253 55.72 119.509 51.976 119.509 44.056ZM189.589 55.72C177.853 55.72 171.661 46.432 171.661 37C171.661 27.568 177.853 18.28 189.589 18.28C201.325 18.28 207.517 27.568 207.517 37C207.517 46.432 201.325 55.72 189.589 55.72ZM189.589 27.856C184.909 27.856 183.181 33.04 183.181 37C183.181 40.96 184.909 46.144 189.589 46.144C194.269 46.144 195.997 40.96 195.997 37C195.997 33.04 194.269 27.856 189.589 27.856ZM213.967 55C214.687 50.464 215.335 40.672 215.335 30.52V24.976C215.335 15.976 214.687 7.264 213.967 3.376C218.503 3.736 223.111 3.736 227.647 3.376C226.927 7.264 226.279 15.976 226.279 24.976V30.52C226.279 40.672 226.927 50.464 227.647 55C223.111 54.64 218.503 54.64 213.967 55ZM235.711 9.424C235.711 6.184 238.735 3.592 242.407 3.592C246.079 3.592 249.103 6.184 249.103 9.424C249.103 12.664 246.079 15.256 242.407 15.256C238.735 15.256 235.711 12.664 235.711 9.424ZM235.567 55C236.287 51.976 236.935 45.352 236.935 38.512V34.84C236.935 28.72 236.287 22.888 235.567 19C240.103 19.36 244.711 19.36 249.247 19C248.527 22.888 247.879 28.72 247.879 34.84V38.512C247.879 45.352 248.527 51.976 249.247 55C244.711 54.64 240.103 54.64 235.567 55ZM273.655 55.72C261.919 55.72 255.727 46.432 255.727 37C255.727 27.568 261.919 18.28 273.655 18.28C285.391 18.28 291.583 27.568 291.583 37C291.583 46.432 285.391 55.72 273.655 55.72ZM273.655 27.856C268.975 27.856 267.247 33.04 267.247 37C267.247 40.96 268.975 46.144 273.655 46.144C278.335 46.144 280.063 40.96 280.063 37C280.063 33.04 278.335 27.856 273.655 27.856Z"/>
</mask>
<path d="M37.368 20.296C37.368 32.032 28.368 36.856 18.072 35.992L15.552 35.776C15.624 44.992 16.272 51.688 16.92 55C12.384 54.64 7.776 54.64 3.24 55C3.96 50.608 4.608 41.032 4.608 31.168V25.768C4.608 16.984 3.96 8.488 3.24 4.6C8.496 4.96 11.664 4.24 19.152 3.88C29.808 3.376 37.368 9.496 37.368 20.296ZM15.552 26.56L17.856 26.776C22.176 27.208 25.848 24.76 25.848 20.584C25.848 16.768 23.832 13.744 19.44 13.744H15.912C15.696 17.2 15.552 22.24 15.552 26.56ZM59.6092 55.72C47.8732 55.72 41.6812 46.432 41.6812 37C41.6812 27.568 47.8732 18.28 59.6092 18.28C71.3452 18.28 77.5372 27.568 77.5372 37C77.5372 46.432 71.3452 55.72 59.6092 55.72ZM59.6092 27.856C54.9292 27.856 53.2012 33.04 53.2012 37C53.2012 40.96 54.9292 46.144 59.6092 46.144C64.2892 46.144 66.0172 40.96 66.0172 37C66.0172 33.04 64.2892 27.856 59.6092 27.856ZM102.779 33.76C102.779 28.216 102.059 26.272 99.6109 26.272C97.3069 26.272 96.5869 28.432 96.4429 30.952C96.2989 32.68 96.2989 34.336 96.2989 35.992V39.52C96.2989 45.928 96.9469 52.12 97.6669 55C93.1309 54.64 88.5229 54.64 83.9869 55C84.7069 51.976 85.3549 45.352 85.3549 38.512V34.84C85.3549 28.72 84.7069 22.888 83.9869 19C88.5229 19.36 93.1309 19.36 97.6669 19C97.5229 19.72 97.3789 20.44 97.3069 21.232C99.8269 19.288 102.995 18.28 105.371 18.28C111.779 18.28 113.723 23.536 113.723 32.32C110.123 32.464 106.379 32.896 102.779 33.76ZM119.509 44.056C119.869 33.544 119.869 22.744 119.509 11.8C123.613 10.648 127.861 9.136 131.965 7.264C131.461 9.28 131.029 14.248 130.741 19.36C137.077 19.648 143.701 19.648 150.037 19.216C145.501 17.416 144.637 12.088 145.645 8.632C146.941 4.312 151.261 2.224 157.309 2.656C159.325 2.8 162.709 3.304 164.869 3.736C164.653 7.336 164.653 11.008 164.869 13.528C163.429 12.808 159.973 12.088 158.605 12.088C156.013 12.088 154.789 14.536 155.869 16.336C156.373 17.272 157.957 18.568 159.037 19.216C161.701 19.216 164.437 19.144 167.029 19C166.669 21.016 166.669 23.176 167.029 25.192C164.581 25.048 162.061 24.976 159.541 24.976C159.397 36.496 159.973 48.448 161.053 55C156.517 54.64 151.909 54.64 147.373 55C148.165 50.104 148.741 39.808 148.741 30.52V24.976C142.765 24.616 136.501 24.544 130.525 24.904C130.453 26.848 130.453 28.792 130.453 30.376V41.608C130.453 44.992 131.893 45.712 133.189 46.144C134.701 46.648 139.021 45.568 140.677 44.488C140.317 47.728 140.317 51.112 140.677 54.352C138.733 55.216 134.485 55.72 132.613 55.72C123.253 55.72 119.509 51.976 119.509 44.056ZM189.589 55.72C177.853 55.72 171.661 46.432 171.661 37C171.661 27.568 177.853 18.28 189.589 18.28C201.325 18.28 207.517 27.568 207.517 37C207.517 46.432 201.325 55.72 189.589 55.72ZM189.589 27.856C184.909 27.856 183.181 33.04 183.181 37C183.181 40.96 184.909 46.144 189.589 46.144C194.269 46.144 195.997 40.96 195.997 37C195.997 33.04 194.269 27.856 189.589 27.856ZM213.967 55C214.687 50.464 215.335 40.672 215.335 30.52V24.976C215.335 15.976 214.687 7.264 213.967 3.376C218.503 3.736 223.111 3.736 227.647 3.376C226.927 7.264 226.279 15.976 226.279 24.976V30.52C226.279 40.672 226.927 50.464 227.647 55C223.111 54.64 218.503 54.64 213.967 55ZM235.711 9.424C235.711 6.184 238.735 3.592 242.407 3.592C246.079 3.592 249.103 6.184 249.103 9.424C249.103 12.664 246.079 15.256 242.407 15.256C238.735 15.256 235.711 12.664 235.711 9.424ZM235.567 55C236.287 51.976 236.935 45.352 236.935 38.512V34.84C236.935 28.72 236.287 22.888 235.567 19C240.103 19.36 244.711 19.36 249.247 19C248.527 22.888 247.879 28.72 247.879 34.84V38.512C247.879 45.352 248.527 51.976 249.247 55C244.711 54.64 240.103 54.64 235.567 55ZM273.655 55.72C261.919 55.72 255.727 46.432 255.727 37C255.727 27.568 261.919 18.28 273.655 18.28C285.391 18.28 291.583 27.568 291.583 37C291.583 46.432 285.391 55.72 273.655 55.72ZM273.655 27.856C268.975 27.856 267.247 33.04 267.247 37C267.247 40.96 268.975 46.144 273.655 46.144C278.335 46.144 280.063 40.96 280.063 37C280.063 33.04 278.335 27.856 273.655 27.856Z" fill="#97EAD2"/>
<path d="M18.072 35.992L17.9012 37.9847L17.9048 37.985L18.072 35.992ZM15.552 35.776L15.7228 33.7833L13.5349 33.5958L13.5521 35.7916L15.552 35.776ZM16.92 55L16.7618 56.9937L19.3888 57.2022L18.8828 54.616L16.92 55ZM3.24 55L1.26634 54.6764L0.853352 57.1957L3.39823 56.9937L3.24 55ZM3.24 4.6L3.37667 2.60467L0.803858 2.42845L1.27344 4.96418L3.24 4.6ZM19.152 3.88L19.0575 1.88223L19.056 1.8823L19.152 3.88ZM15.552 26.56H13.552V28.3813L15.3653 28.5513L15.552 26.56ZM17.856 26.776L18.055 24.7859L18.0427 24.7847L17.856 26.776ZM15.912 13.744V11.744H14.0331L13.9159 13.6192L15.912 13.744ZM37.368 20.296H35.368C35.368 25.595 33.3696 29.1014 30.4069 31.2499C27.3674 33.4541 23.0647 34.4039 18.2392 33.999L18.072 35.992L17.9048 37.985C23.3753 38.4441 28.7206 37.4139 32.7551 34.4881C36.8664 31.5066 39.368 26.733 39.368 20.296H37.368ZM18.072 35.992L18.2428 33.9993L15.7228 33.7833L15.552 35.776L15.3812 37.7687L17.9012 37.9847L18.072 35.992ZM15.552 35.776L13.5521 35.7916C13.6245 45.0625 14.2751 51.8979 14.9572 55.384L16.92 55L18.8828 54.616C18.2689 51.4781 17.6235 44.9215 17.5519 35.7604L15.552 35.776ZM16.92 55L17.0782 53.0063C12.4369 52.6379 7.72309 52.6379 3.08177 53.0063L3.24 55L3.39823 56.9937C7.82891 56.6421 12.3311 56.6421 16.7618 56.9937L16.92 55ZM3.24 55L5.21366 55.3236C5.9591 50.7764 6.608 41.0771 6.608 31.168H4.608H2.608C2.608 40.9869 1.9609 50.4396 1.26634 54.6764L3.24 55ZM4.608 31.168H6.608V25.768H4.608H2.608V31.168H4.608ZM4.608 25.768H6.608C6.608 16.9335 5.95887 8.29828 5.20656 4.23582L3.24 4.6L1.27344 4.96418C1.96113 8.67772 2.608 17.0345 2.608 25.768H4.608ZM3.24 4.6L3.10333 6.59532C5.86497 6.78447 8.07646 6.68795 10.5095 6.50432C12.948 6.32029 15.5395 6.05599 19.248 5.87769L19.152 3.88L19.056 1.8823C15.2765 2.06401 12.54 2.33971 10.2085 2.51567C7.87154 2.69204 5.87103 2.77552 3.37667 2.60467L3.24 4.6ZM19.152 3.88L19.2465 5.87776C24.1795 5.64445 28.1893 6.95009 30.9396 9.35467C33.666 11.7384 35.368 15.3864 35.368 20.296H37.368H39.368C39.368 14.4056 37.29 9.59363 33.5724 6.34332C29.8787 3.11391 24.7805 1.61155 19.0575 1.88223L19.152 3.88ZM15.552 26.56L15.3653 28.5513L17.6693 28.7673L17.856 26.776L18.0427 24.7847L15.7387 24.5687L15.552 26.56ZM17.856 26.776L17.657 28.7661C20.2296 29.0233 22.7433 28.4367 24.6625 27.0151C26.6208 25.5645 27.848 23.3166 27.848 20.584H25.848H23.848C23.848 22.0274 23.2392 23.0915 22.2815 23.8009C21.2847 24.5393 19.8024 24.9607 18.055 24.7859L17.856 26.776ZM25.848 20.584H27.848C27.848 18.3484 27.2586 16.1282 25.8119 14.4342C24.3239 12.6919 22.1308 11.744 19.44 11.744V13.744V15.744C21.1412 15.744 22.1521 16.3081 22.7701 17.0318C23.4294 17.8038 23.848 19.0036 23.848 20.584H25.848ZM19.44 13.744V11.744H15.912V13.744V15.744H19.44V13.744ZM15.912 13.744L13.9159 13.6192C13.6968 17.1244 13.552 22.2067 13.552 26.56H15.552H17.552C17.552 22.2733 17.6952 17.2756 17.9081 13.8688L15.912 13.744ZM59.6092 55.72V53.72C54.3183 53.72 50.3914 51.6478 47.7597 48.5919C45.095 45.4976 43.6812 41.298 43.6812 37H41.6812H39.6812C39.6812 42.134 41.3635 47.2944 44.7288 51.2021C48.1271 55.1482 53.1642 57.72 59.6092 57.72V55.72ZM41.6812 37H43.6812C43.6812 32.702 45.095 28.5024 47.7597 25.4081C50.3914 22.3522 54.3183 20.28 59.6092 20.28V18.28V16.28C53.1642 16.28 48.1271 18.8518 44.7288 22.7979C41.3635 26.7056 39.6812 31.866 39.6812 37H41.6812ZM59.6092 18.28V20.28C64.9002 20.28 68.8271 22.3522 71.4588 25.4081C74.1235 28.5024 75.5372 32.702 75.5372 37H77.5372H79.5372C79.5372 31.866 77.855 26.7056 74.4897 22.7979C71.0914 18.8518 66.0543 16.28 59.6092 16.28V18.28ZM77.5372 37H75.5372C75.5372 41.298 74.1235 45.4976 71.4588 48.5919C68.8271 51.6478 64.9002 53.72 59.6092 53.72V55.72V57.72C66.0543 57.72 71.0914 55.1482 74.4897 51.2021C77.855 47.2944 79.5372 42.134 79.5372 37H77.5372ZM59.6092 27.856V25.856C56.3692 25.856 54.1844 27.7131 52.9111 29.9554C51.6769 32.1289 51.2012 34.7813 51.2012 37H53.2012H55.2012C55.2012 35.2587 55.5896 33.3391 56.3894 31.9306C57.1501 30.5909 58.1693 29.856 59.6092 29.856V27.856ZM53.2012 37H51.2012C51.2012 39.2187 51.6769 41.8711 52.9111 44.0446C54.1844 46.2869 56.3692 48.144 59.6092 48.144V46.144V44.144C58.1693 44.144 57.1501 43.4091 56.3894 42.0694C55.5896 40.6609 55.2012 38.7413 55.2012 37H53.2012ZM59.6092 46.144V48.144C62.8493 48.144 65.0341 46.2869 66.3074 44.0446C67.5416 41.8711 68.0172 39.2187 68.0172 37H66.0172H64.0172C64.0172 38.7413 63.6289 40.6609 62.8291 42.0694C62.0684 43.4091 61.0492 44.144 59.6092 44.144V46.144ZM66.0172 37H68.0172C68.0172 34.7813 67.5416 32.1289 66.3074 29.9554C65.0341 27.7131 62.8493 25.856 59.6092 25.856V27.856V29.856C61.0492 29.856 62.0684 30.5909 62.8291 31.9306C63.6289 33.3391 64.0172 35.2587 64.0172 37H66.0172ZM102.779 33.76H100.779V36.2968L103.246 35.7048L102.779 33.76ZM96.4429 30.952L98.436 31.1181L98.4381 31.0921L98.4396 31.0661L96.4429 30.952ZM97.6669 55L97.5086 56.9937L100.282 57.2138L99.6072 54.5149L97.6669 55ZM83.9869 55L82.0413 54.5368L81.4045 57.2112L84.1451 56.9937L83.9869 55ZM83.9869 19L84.1451 17.0063L81.5455 16.7999L82.0203 19.3642L83.9869 19ZM97.6669 19L99.628 19.3922L100.147 16.7969L97.5086 17.0063L97.6669 19ZM97.3069 21.232L95.3151 21.0509L94.9002 25.6145L98.5285 22.8156L97.3069 21.232ZM113.723 32.32L113.803 34.3184L115.723 34.2416V32.32H113.723ZM102.779 33.76H104.779C104.779 31.0107 104.617 28.7645 103.962 27.1748C103.609 26.3175 103.067 25.5327 102.232 24.9878C101.403 24.4466 100.485 24.272 99.6109 24.272V26.272V28.272C99.7868 28.272 99.8974 28.2897 99.9612 28.3058C100.02 28.3206 100.041 28.3345 100.045 28.337C100.048 28.3391 100.067 28.3508 100.101 28.3948C100.137 28.4427 100.196 28.5351 100.264 28.6992C100.581 29.4675 100.779 30.9653 100.779 33.76H102.779ZM99.6109 26.272V24.272C97.6673 24.272 96.2824 25.2637 95.4781 26.6787C94.7611 27.9401 94.5235 29.4844 94.4461 30.8379L96.4429 30.952L98.4396 31.0661C98.5063 29.8996 98.7006 29.1039 98.9556 28.6553C99.067 28.4593 99.1594 28.3847 99.211 28.353C99.2545 28.3263 99.3607 28.272 99.6109 28.272V26.272ZM96.4429 30.952L94.4498 30.7859C94.2978 32.6097 94.2989 34.347 94.2989 35.992H96.2989H98.2989C98.2989 34.325 98.2999 32.7503 98.436 31.1181L96.4429 30.952ZM96.2989 35.992H94.2989V39.52H96.2989H98.2989V35.992H96.2989ZM96.2989 39.52H94.2989C94.2989 46.002 94.9499 52.3783 95.7266 55.4851L97.6669 55L99.6072 54.5149C98.9439 51.8617 98.2989 45.854 98.2989 39.52H96.2989ZM97.6669 55L97.8251 53.0063C93.1838 52.6379 88.47 52.6379 83.8286 53.0063L83.9869 55L84.1451 56.9937C88.5758 56.6421 93.078 56.6421 97.5086 56.9937L97.6669 55ZM83.9869 55L85.9325 55.4632C86.7048 52.2194 87.3549 45.4176 87.3549 38.512H85.3549H83.3549C83.3549 45.2864 82.7089 51.7326 82.0413 54.5368L83.9869 55ZM85.3549 38.512H87.3549V34.84H85.3549H83.3549V38.512H85.3549ZM85.3549 34.84H87.3549C87.3549 28.5946 86.6951 22.6408 85.9534 18.6358L83.9869 19L82.0203 19.3642C82.7187 23.1352 83.3549 28.8454 83.3549 34.84H85.3549ZM83.9869 19L83.8286 20.9937C88.47 21.3621 93.1838 21.3621 97.8251 20.9937L97.6669 19L97.5086 17.0063C93.078 17.3579 88.5758 17.3579 84.1451 17.0063L83.9869 19ZM97.6669 19L95.7057 18.6078C95.564 19.3165 95.3982 20.137 95.3151 21.0509L97.3069 21.232L99.2987 21.4131C99.3596 20.743 99.4818 20.1235 99.628 19.3922L97.6669 19ZM97.3069 21.232L98.5285 22.8156C100.722 21.1234 103.466 20.28 105.371 20.28V18.28V16.28C102.524 16.28 98.9317 17.4526 96.0853 19.6484L97.3069 21.232ZM105.371 18.28V20.28C106.696 20.28 107.656 20.5499 108.374 20.9674C109.086 21.3815 109.687 22.0143 110.185 22.9475C111.228 24.9019 111.723 27.9903 111.723 32.32H113.723H115.723C115.723 27.8657 115.246 23.9341 113.714 21.0645C112.925 19.5857 111.839 18.3555 110.385 17.5096C108.936 16.6671 107.249 16.28 105.371 16.28V18.28ZM113.723 32.32L113.643 30.3216C109.944 30.4696 106.066 30.9143 102.312 31.8152L102.779 33.76L103.246 35.7048C106.692 34.8777 110.302 34.4584 113.803 34.3184L113.723 32.32ZM119.509 44.056L117.51 43.9875L117.509 44.0218V44.056H119.509ZM119.509 11.8L118.968 9.87442L117.458 10.2983L117.51 11.8658L119.509 11.8ZM131.965 7.264L133.905 7.74907L134.912 3.72142L131.135 5.44436L131.965 7.264ZM130.741 19.36L128.744 19.2475L128.63 21.2661L130.65 21.3579L130.741 19.36ZM150.037 19.216L150.173 21.2114L150.774 17.357L150.037 19.216ZM145.645 8.632L143.729 8.0573L143.727 8.06464L143.725 8.072L145.645 8.632ZM157.309 2.656L157.451 0.661079L157.451 0.661078L157.309 2.656ZM164.869 3.736L166.865 3.85578L166.97 2.11655L165.261 1.77484L164.869 3.736ZM164.869 13.528L163.974 15.3169L167.166 16.9128L166.861 13.3572L164.869 13.528ZM155.869 16.336L157.63 15.3878L157.608 15.3469L157.584 15.307L155.869 16.336ZM159.037 19.216L158.008 20.931L158.483 21.216H159.037V19.216ZM167.029 19L168.998 19.3516L169.442 16.8628L166.918 17.0031L167.029 19ZM167.029 25.192L166.911 27.1885L169.444 27.3375L168.998 24.8404L167.029 25.192ZM159.541 24.976V22.976H157.566L157.541 24.951L159.541 24.976ZM161.053 55L160.895 56.9937L163.442 57.1959L163.026 54.6747L161.053 55ZM147.373 55L145.398 54.6806L144.992 57.1953L147.531 56.9937L147.373 55ZM148.741 24.976H150.741V23.0929L148.861 22.9796L148.741 24.976ZM130.525 24.904L130.404 22.9076L128.593 23.0167L128.526 24.83L130.525 24.904ZM133.189 46.144L132.556 48.0414L132.556 48.0414L133.189 46.144ZM140.677 44.488L142.665 44.7089L143.132 40.4988L139.584 42.8128L140.677 44.488ZM140.677 54.352L141.489 56.1796L142.826 55.5854L142.665 54.1311L140.677 54.352ZM119.509 44.056L121.508 44.1245C121.869 33.5659 121.869 22.7212 121.508 11.7342L119.509 11.8L117.51 11.8658C117.868 22.7668 117.868 33.5221 117.51 43.9875L119.509 44.056ZM119.509 11.8L120.049 13.7256C124.243 12.5483 128.589 11.0021 132.795 9.08363L131.965 7.264L131.135 5.44436C127.133 7.26994 122.982 8.74771 118.968 9.87442L119.509 11.8ZM131.965 7.264L130.024 6.77893C129.465 9.01716 129.029 14.1949 128.744 19.2475L130.741 19.36L132.738 19.4725C133.029 14.3011 133.457 9.54283 133.905 7.74907L131.965 7.264ZM130.741 19.36L130.65 21.3579C137.045 21.6486 143.747 21.6495 150.173 21.2114L150.037 19.216L149.901 17.2206C143.655 17.6465 137.108 17.6474 130.832 17.3621L130.741 19.36ZM150.037 19.216L150.774 17.357C149.159 16.7161 148.17 15.4582 147.661 13.9177C147.137 12.3332 147.168 10.5519 147.565 9.192L145.645 8.632L143.725 8.072C143.113 10.168 143.072 12.7788 143.863 15.1723C144.668 17.6098 146.378 19.9159 149.299 21.075L150.037 19.216ZM145.645 8.632L147.56 9.20669C148.465 6.19153 151.548 4.24959 157.166 4.65091L157.309 2.656L157.451 0.661078C150.974 0.1984 145.417 2.43246 143.729 8.0573L145.645 8.632ZM157.309 2.656L157.166 4.65091C159.075 4.78727 162.373 5.27636 164.477 5.69716L164.869 3.736L165.261 1.77484C163.045 1.33163 159.574 0.812726 157.451 0.661079L157.309 2.656ZM164.869 3.736L162.872 3.61622C162.653 7.27591 162.649 11.0511 162.876 13.6988L164.869 13.528L166.861 13.3572C166.656 10.9649 166.653 7.39608 166.865 3.85578L164.869 3.736ZM164.869 13.528L165.763 11.7391C164.813 11.2639 163.388 10.8622 162.144 10.5856C160.895 10.3082 159.515 10.088 158.605 10.088V12.088V14.088C159.063 14.088 160.094 14.2278 161.276 14.4904C162.461 14.7538 163.485 15.0721 163.974 15.3169L164.869 13.528ZM158.605 12.088V10.088C154.561 10.088 152.222 14.1448 154.154 17.365L155.869 16.336L157.584 15.307C157.438 15.0633 157.444 14.7876 157.581 14.5551C157.701 14.3529 157.985 14.088 158.605 14.088V12.088ZM155.869 16.336L154.108 17.2842C154.536 18.0801 155.285 18.8313 155.917 19.3863C156.592 19.9795 157.354 20.5389 158.008 20.931L159.037 19.216L160.066 17.501C159.639 17.2451 159.07 16.8325 158.557 16.3817C158.001 15.8927 157.705 15.5279 157.63 15.3878L155.869 16.336ZM159.037 19.216V21.216C161.735 21.216 164.508 21.1431 167.14 20.9969L167.029 19L166.918 17.0031C164.365 17.1449 161.666 17.216 159.037 17.216V19.216ZM167.029 19L165.06 18.6484C164.658 20.897 164.658 23.295 165.06 25.5436L167.029 25.192L168.998 24.8404C168.679 23.057 168.679 21.135 168.998 19.3516L167.029 19ZM167.029 25.192L167.146 23.1954C164.657 23.0491 162.098 22.976 159.541 22.976V24.976V26.976C162.023 26.976 164.504 27.0469 166.911 27.1885L167.029 25.192ZM159.541 24.976L157.541 24.951C157.396 36.5094 157.971 48.5995 159.079 55.3253L161.053 55L163.026 54.6747C161.975 48.2965 161.397 36.4826 161.541 25.001L159.541 24.976ZM161.053 55L161.211 53.0063C156.57 52.6379 151.856 52.6379 147.215 53.0063L147.373 55L147.531 56.9937C151.962 56.6421 156.464 56.6421 160.895 56.9937L161.053 55ZM147.373 55L149.347 55.3194C150.165 50.2632 150.741 39.84 150.741 30.52H148.741H146.741C146.741 39.776 146.165 49.9448 145.398 54.6806L147.373 55ZM148.741 30.52H150.741V24.976H148.741H146.741V30.52H148.741ZM148.741 24.976L148.861 22.9796C142.821 22.6158 136.476 22.5419 130.404 22.9076L130.525 24.904L130.645 26.9004C136.526 26.5461 142.708 26.6162 148.62 26.9724L148.741 24.976ZM130.525 24.904L128.526 24.83C128.453 26.8165 128.453 28.7964 128.453 30.376H130.453H132.453C132.453 28.7876 132.453 26.8795 132.523 24.978L130.525 24.904ZM130.453 30.376H128.453V41.608H130.453H132.453V30.376H130.453ZM130.453 41.608H128.453C128.453 43.5658 128.869 45.094 129.769 46.2272C130.666 47.3566 131.82 47.7959 132.556 48.0414L133.189 46.144L133.821 44.2466C133.262 44.0601 133.047 43.9234 132.901 43.7388C132.757 43.558 132.453 43.0342 132.453 41.608H130.453ZM133.189 46.144L132.556 48.0414C133.32 48.2959 134.197 48.2967 134.91 48.2444C135.681 48.1877 136.52 48.0462 137.33 47.8584C138.891 47.4967 140.652 46.8922 141.769 46.1632L140.677 44.488L139.584 42.8128C139.046 43.1638 137.818 43.6393 136.427 43.9616C135.762 44.1158 135.133 44.2172 134.617 44.2551C134.043 44.2973 133.814 44.2441 133.821 44.2466L133.189 46.144ZM140.677 44.488L138.689 44.2671C138.313 47.6539 138.313 51.1861 138.689 54.5729L140.677 54.352L142.665 54.1311C142.321 51.0379 142.321 47.8021 142.665 44.7089L140.677 44.488ZM140.677 54.352L139.864 52.5244C139.153 52.8406 137.831 53.1525 136.317 53.3827C134.843 53.6069 133.418 53.72 132.613 53.72V55.72V57.72C133.679 57.72 135.315 57.5811 136.918 57.3373C138.482 57.0995 140.257 56.7274 141.489 56.1796L140.677 54.352ZM132.613 55.72V53.72C128.135 53.72 125.465 52.8132 123.9 51.3821C122.378 49.9902 121.509 47.7354 121.509 44.056H119.509H117.509C117.509 48.2966 118.511 51.8738 121.201 54.3339C123.848 56.7548 127.731 57.72 132.613 57.72V55.72ZM189.589 55.72V53.72C184.298 53.72 180.371 51.6478 177.739 48.5919C175.075 45.4976 173.661 41.298 173.661 37H171.661H169.661C169.661 42.134 171.343 47.2944 174.708 51.2021C178.107 55.1482 183.144 57.72 189.589 57.72V55.72ZM171.661 37H173.661C173.661 32.702 175.075 28.5024 177.739 25.4081C180.371 22.3522 184.298 20.28 189.589 20.28V18.28V16.28C183.144 16.28 178.107 18.8518 174.708 22.7979C171.343 26.7056 169.661 31.866 169.661 37H171.661ZM189.589 18.28V20.28C194.88 20.28 198.807 22.3522 201.438 25.4081C204.103 28.5024 205.517 32.702 205.517 37H207.517H209.517C209.517 31.866 207.835 26.7056 204.469 22.7979C201.071 18.8518 196.034 16.28 189.589 16.28V18.28ZM207.517 37H205.517C205.517 41.298 204.103 45.4976 201.438 48.5919C198.807 51.6478 194.88 53.72 189.589 53.72V55.72V57.72C196.034 57.72 201.071 55.1482 204.469 51.2021C207.835 47.2944 209.517 42.134 209.517 37H207.517ZM189.589 27.856V25.856C186.349 25.856 184.164 27.7131 182.891 29.9554C181.657 32.1289 181.181 34.7813 181.181 37H183.181H185.181C185.181 35.2587 185.569 33.3391 186.369 31.9306C187.13 30.5909 188.149 29.856 189.589 29.856V27.856ZM183.181 37H181.181C181.181 39.2187 181.657 41.8711 182.891 44.0446C184.164 46.2869 186.349 48.144 189.589 48.144V46.144V44.144C188.149 44.144 187.13 43.4091 186.369 42.0694C185.569 40.6609 185.181 38.7413 185.181 37H183.181ZM189.589 46.144V48.144C192.829 48.144 195.014 46.2869 196.287 44.0446C197.521 41.8711 197.997 39.2187 197.997 37H195.997H193.997C193.997 38.7413 193.609 40.6609 192.809 42.0694C192.048 43.4091 191.029 44.144 189.589 44.144V46.144ZM195.997 37H197.997C197.997 34.7813 197.521 32.1289 196.287 29.9554C195.014 27.7131 192.829 25.856 189.589 25.856V27.856V29.856C191.029 29.856 192.048 30.5909 192.809 31.9306C193.609 33.3391 193.997 35.2587 193.997 37H195.997ZM213.967 55L211.991 54.6865L211.593 57.1947L214.125 56.9937L213.967 55ZM213.967 3.376L214.125 1.38227L211.525 1.17595L212 3.74018L213.967 3.376ZM227.647 3.376L229.613 3.74018L230.088 1.17595L227.488 1.38227L227.647 3.376ZM227.647 55L227.488 56.9937L230.02 57.1947L229.622 54.6865L227.647 55ZM213.967 55L215.942 55.3135C216.686 50.6278 217.335 40.7169 217.335 30.52H215.335H213.335C213.335 40.6271 212.688 50.3002 211.991 54.6865L213.967 55ZM215.335 30.52H217.335V24.976H215.335H213.335V30.52H215.335ZM215.335 24.976H217.335C217.335 15.9304 216.686 7.07707 215.933 3.01182L213.967 3.376L212 3.74018C212.687 7.45092 213.335 16.0216 213.335 24.976H215.335ZM213.967 3.376L213.808 5.36973C218.45 5.73809 223.163 5.73809 227.805 5.36973L227.647 3.376L227.488 1.38227C223.058 1.73391 218.555 1.73391 214.125 1.38227L213.967 3.376ZM227.647 3.376L225.68 3.01182C224.927 7.07707 224.279 15.9304 224.279 24.976H226.279H228.279C228.279 16.0216 228.926 7.45092 229.613 3.74018L227.647 3.376ZM226.279 24.976H224.279V30.52H226.279H228.279V24.976H226.279ZM226.279 30.52H224.279C224.279 40.7169 224.928 50.6278 225.671 55.3135L227.647 55L229.622 54.6865C228.926 50.3002 228.279 40.6271 228.279 30.52H226.279ZM227.647 55L227.805 53.0063C223.163 52.6379 218.45 52.6379 213.808 53.0063L213.967 55L214.125 56.9937C218.555 56.6421 223.058 56.6421 227.488 56.9937L227.647 55ZM235.567 55L233.621 54.5368L232.984 57.2112L235.725 56.9937L235.567 55ZM235.567 19L235.725 17.0063L233.125 16.7999L233.6 19.3642L235.567 19ZM249.247 19L251.213 19.3642L251.688 16.7999L249.088 17.0063L249.247 19ZM249.247 55L249.088 56.9937L251.829 57.2112L251.192 54.5368L249.247 55ZM235.711 9.424H237.711C237.711 7.54767 239.561 5.592 242.407 5.592V3.592V1.592C237.908 1.592 233.711 4.82032 233.711 9.424H235.711ZM242.407 3.592V5.592C245.252 5.592 247.103 7.54767 247.103 9.424H249.103H251.103C251.103 4.82032 246.905 1.592 242.407 1.592V3.592ZM249.103 9.424H247.103C247.103 11.3003 245.252 13.256 242.407 13.256V15.256V17.256C246.905 17.256 251.103 14.0277 251.103 9.424H249.103ZM242.407 15.256V13.256C239.561 13.256 237.711 11.3003 237.711 9.424H235.711H233.711C233.711 14.0277 237.908 17.256 242.407 17.256V15.256ZM235.567 55L237.512 55.4632C238.285 52.2194 238.935 45.4176 238.935 38.512H236.935H234.935C234.935 45.2864 234.289 51.7326 233.621 54.5368L235.567 55ZM236.935 38.512H238.935V34.84H236.935H234.935V38.512H236.935ZM236.935 34.84H238.935C238.935 28.5946 238.275 22.6408 237.533 18.6358L235.567 19L233.6 19.3642C234.298 23.1352 234.935 28.8454 234.935 34.84H236.935ZM235.567 19L235.408 20.9937C240.05 21.3621 244.763 21.3621 249.405 20.9937L249.247 19L249.088 17.0063C244.658 17.3579 240.155 17.3579 235.725 17.0063L235.567 19ZM249.247 19L247.28 18.6358C246.538 22.6408 245.879 28.5946 245.879 34.84H247.879H249.879C249.879 28.8454 250.515 23.1352 251.213 19.3642L249.247 19ZM247.879 34.84H245.879V38.512H247.879H249.879V34.84H247.879ZM247.879 38.512H245.879C245.879 45.4176 246.529 52.2194 247.301 55.4632L249.247 55L251.192 54.5368C250.525 51.7326 249.879 45.2864 249.879 38.512H247.879ZM249.247 55L249.405 53.0063C244.763 52.6379 240.05 52.6379 235.408 53.0063L235.567 55L235.725 56.9937C240.155 56.6421 244.658 56.6421 249.088 56.9937L249.247 55ZM273.655 55.72V53.72C268.364 53.72 264.437 51.6478 261.805 48.5919C259.14 45.4976 257.727 41.298 257.727 37H255.727H253.727C253.727 42.134 255.409 47.2944 258.774 51.2021C262.172 55.1482 267.21 57.72 273.655 57.72V55.72ZM255.727 37H257.727C257.727 32.702 259.14 28.5024 261.805 25.4081C264.437 22.3522 268.364 20.28 273.655 20.28V18.28V16.28C267.21 16.28 262.172 18.8518 258.774 22.7979C255.409 26.7056 253.727 31.866 253.727 37H255.727ZM273.655 18.28V20.28C278.946 20.28 282.872 22.3522 285.504 25.4081C288.169 28.5024 289.583 32.702 289.583 37H291.583H293.583C293.583 31.866 291.9 26.7056 288.535 22.7979C285.137 18.8518 280.1 16.28 273.655 16.28V18.28ZM291.583 37H289.583C289.583 41.298 288.169 45.4976 285.504 48.5919C282.872 51.6478 278.946 53.72 273.655 53.72V55.72V57.72C280.1 57.72 285.137 55.1482 288.535 51.2021C291.9 47.2944 293.583 42.134 293.583 37H291.583ZM273.655 27.856V25.856C270.415 25.856 268.23 27.7131 266.956 29.9554C265.722 32.1289 265.247 34.7813 265.247 37H267.247H269.247C269.247 35.2587 269.635 33.3391 270.435 31.9306C271.195 30.5909 272.215 29.856 273.655 29.856V27.856ZM267.247 37H265.247C265.247 39.2187 265.722 41.8711 266.956 44.0446C268.23 46.2869 270.415 48.144 273.655 48.144V46.144V44.144C272.215 44.144 271.195 43.4091 270.435 42.0694C269.635 40.6609 269.247 38.7413 269.247 37H267.247ZM273.655 46.144V48.144C276.895 48.144 279.079 46.2869 280.353 44.0446C281.587 41.8711 282.063 39.2187 282.063 37H280.063H278.063C278.063 38.7413 277.674 40.6609 276.874 42.0694C276.114 43.4091 275.095 44.144 273.655 44.144V46.144ZM280.063 37H282.063C282.063 34.7813 281.587 32.1289 280.353 29.9554C279.079 27.7131 276.895 25.856 273.655 25.856V27.856V29.856C275.095 29.856 276.114 30.5909 276.874 31.9306C277.674 33.3391 278.063 35.2587 278.063 37H280.063Z" fill="url(#paint0_linear_242_4)" mask="url(#path-1-outside-1_242_4)"/>
<defs>
<linearGradient id="paint0_linear_242_4" x1="141.892" y1="-25.2522" x2="141.892" y2="76" gradientUnits="userSpaceOnUse">
<stop stop-color="#222C73"/>
<stop offset="1" stop-color="#4053D9"/>
</linearGradient>
</defs>
</svg>
