<svg width="296" height="60" viewBox="0 0 296 60" fill="none" xmlns="http://www.w3.org/2000/svg">
<mask id="path-1-outside-1_156_103" maskUnits="userSpaceOnUse" x="0" y="0" width="296" height="60" fill="black">
<rect fill="white" width="296" height="60"/>
<path d="M38.368 21.296C38.368 33.032 29.368 37.856 19.072 36.992L16.552 36.776C16.624 45.992 17.272 52.688 17.92 56C13.384 55.64 8.776 55.64 4.24 56C4.96 51.608 5.608 42.032 5.608 32.168V26.768C5.608 17.984 4.96 9.488 4.24 5.6C9.496 5.96 12.664 5.24 20.152 4.88C30.808 4.376 38.368 10.496 38.368 21.296ZM16.552 27.56L18.856 27.776C23.176 28.208 26.848 25.76 26.848 21.584C26.848 17.768 24.832 14.744 20.44 14.744H16.912C16.696 18.2 16.552 23.24 16.552 27.56ZM60.6092 56.72C48.8732 56.72 42.6812 47.432 42.6812 38C42.6812 28.568 48.8732 19.28 60.6092 19.28C72.3452 19.28 78.5372 28.568 78.5372 38C78.5372 47.432 72.3452 56.72 60.6092 56.72ZM60.6092 28.856C55.9292 28.856 54.2012 34.04 54.2012 38C54.2012 41.96 55.9292 47.144 60.6092 47.144C65.2892 47.144 67.0172 41.96 67.0172 38C67.0172 34.04 65.2892 28.856 60.6092 28.856ZM103.779 34.76C103.779 29.216 103.059 27.272 100.611 27.272C98.3069 27.272 97.5869 29.432 97.4429 31.952C97.2989 33.68 97.2989 35.336 97.2989 36.992V40.52C97.2989 46.928 97.9469 53.12 98.6669 56C94.1309 55.64 89.5229 55.64 84.9869 56C85.7069 52.976 86.3549 46.352 86.3549 39.512V35.84C86.3549 29.72 85.7069 23.888 84.9869 20C89.5229 20.36 94.1309 20.36 98.6669 20C98.5229 20.72 98.3789 21.44 98.3069 22.232C100.827 20.288 103.995 19.28 106.371 19.28C112.779 19.28 114.723 24.536 114.723 33.32C111.123 33.464 107.379 33.896 103.779 34.76ZM120.509 45.056C120.869 34.544 120.869 23.744 120.509 12.8C124.613 11.648 128.861 10.136 132.965 8.264C132.461 10.28 132.029 15.248 131.741 20.36C138.077 20.648 144.701 20.648 151.037 20.216C146.501 18.416 145.637 13.088 146.645 9.632C147.941 5.312 152.261 3.224 158.309 3.656C160.325 3.8 163.709 4.304 165.869 4.736C165.653 8.336 165.653 12.008 165.869 14.528C164.429 13.808 160.973 13.088 159.605 13.088C157.013 13.088 155.789 15.536 156.869 17.336C157.373 18.272 158.957 19.568 160.037 20.216C162.701 20.216 165.437 20.144 168.029 20C167.669 22.016 167.669 24.176 168.029 26.192C165.581 26.048 163.061 25.976 160.541 25.976C160.397 37.496 160.973 49.448 162.053 56C157.517 55.64 152.909 55.64 148.373 56C149.165 51.104 149.741 40.808 149.741 31.52V25.976C143.765 25.616 137.501 25.544 131.525 25.904C131.453 27.848 131.453 29.792 131.453 31.376V42.608C131.453 45.992 132.893 46.712 134.189 47.144C135.701 47.648 140.021 46.568 141.677 45.488C141.317 48.728 141.317 52.112 141.677 55.352C139.733 56.216 135.485 56.72 133.613 56.72C124.253 56.72 120.509 52.976 120.509 45.056ZM190.589 56.72C178.853 56.72 172.661 47.432 172.661 38C172.661 28.568 178.853 19.28 190.589 19.28C202.325 19.28 208.517 28.568 208.517 38C208.517 47.432 202.325 56.72 190.589 56.72ZM190.589 28.856C185.909 28.856 184.181 34.04 184.181 38C184.181 41.96 185.909 47.144 190.589 47.144C195.269 47.144 196.997 41.96 196.997 38C196.997 34.04 195.269 28.856 190.589 28.856ZM214.967 56C215.687 51.464 216.335 41.672 216.335 31.52V25.976C216.335 16.976 215.687 8.264 214.967 4.376C219.503 4.736 224.111 4.736 228.647 4.376C227.927 8.264 227.279 16.976 227.279 25.976V31.52C227.279 41.672 227.927 51.464 228.647 56C224.111 55.64 219.503 55.64 214.967 56ZM236.711 10.424C236.711 7.184 239.735 4.592 243.407 4.592C247.079 4.592 250.103 7.184 250.103 10.424C250.103 13.664 247.079 16.256 243.407 16.256C239.735 16.256 236.711 13.664 236.711 10.424ZM236.567 56C237.287 52.976 237.935 46.352 237.935 39.512V35.84C237.935 29.72 237.287 23.888 236.567 20C241.103 20.36 245.711 20.36 250.247 20C249.527 23.888 248.879 29.72 248.879 35.84V39.512C248.879 46.352 249.527 52.976 250.247 56C245.711 55.64 241.103 55.64 236.567 56ZM274.655 56.72C262.919 56.72 256.727 47.432 256.727 38C256.727 28.568 262.919 19.28 274.655 19.28C286.391 19.28 292.583 28.568 292.583 38C292.583 47.432 286.391 56.72 274.655 56.72ZM274.655 28.856C269.975 28.856 268.247 34.04 268.247 38C268.247 41.96 269.975 47.144 274.655 47.144C279.335 47.144 281.063 41.96 281.063 38C281.063 34.04 279.335 28.856 274.655 28.856Z"/>
</mask>
<path d="M38.368 21.296C38.368 33.032 29.368 37.856 19.072 36.992L16.552 36.776C16.624 45.992 17.272 52.688 17.92 56C13.384 55.64 8.776 55.64 4.24 56C4.96 51.608 5.608 42.032 5.608 32.168V26.768C5.608 17.984 4.96 9.488 4.24 5.6C9.496 5.96 12.664 5.24 20.152 4.88C30.808 4.376 38.368 10.496 38.368 21.296ZM16.552 27.56L18.856 27.776C23.176 28.208 26.848 25.76 26.848 21.584C26.848 17.768 24.832 14.744 20.44 14.744H16.912C16.696 18.2 16.552 23.24 16.552 27.56ZM60.6092 56.72C48.8732 56.72 42.6812 47.432 42.6812 38C42.6812 28.568 48.8732 19.28 60.6092 19.28C72.3452 19.28 78.5372 28.568 78.5372 38C78.5372 47.432 72.3452 56.72 60.6092 56.72ZM60.6092 28.856C55.9292 28.856 54.2012 34.04 54.2012 38C54.2012 41.96 55.9292 47.144 60.6092 47.144C65.2892 47.144 67.0172 41.96 67.0172 38C67.0172 34.04 65.2892 28.856 60.6092 28.856ZM103.779 34.76C103.779 29.216 103.059 27.272 100.611 27.272C98.3069 27.272 97.5869 29.432 97.4429 31.952C97.2989 33.68 97.2989 35.336 97.2989 36.992V40.52C97.2989 46.928 97.9469 53.12 98.6669 56C94.1309 55.64 89.5229 55.64 84.9869 56C85.7069 52.976 86.3549 46.352 86.3549 39.512V35.84C86.3549 29.72 85.7069 23.888 84.9869 20C89.5229 20.36 94.1309 20.36 98.6669 20C98.5229 20.72 98.3789 21.44 98.3069 22.232C100.827 20.288 103.995 19.28 106.371 19.28C112.779 19.28 114.723 24.536 114.723 33.32C111.123 33.464 107.379 33.896 103.779 34.76ZM120.509 45.056C120.869 34.544 120.869 23.744 120.509 12.8C124.613 11.648 128.861 10.136 132.965 8.264C132.461 10.28 132.029 15.248 131.741 20.36C138.077 20.648 144.701 20.648 151.037 20.216C146.501 18.416 145.637 13.088 146.645 9.632C147.941 5.312 152.261 3.224 158.309 3.656C160.325 3.8 163.709 4.304 165.869 4.736C165.653 8.336 165.653 12.008 165.869 14.528C164.429 13.808 160.973 13.088 159.605 13.088C157.013 13.088 155.789 15.536 156.869 17.336C157.373 18.272 158.957 19.568 160.037 20.216C162.701 20.216 165.437 20.144 168.029 20C167.669 22.016 167.669 24.176 168.029 26.192C165.581 26.048 163.061 25.976 160.541 25.976C160.397 37.496 160.973 49.448 162.053 56C157.517 55.64 152.909 55.64 148.373 56C149.165 51.104 149.741 40.808 149.741 31.52V25.976C143.765 25.616 137.501 25.544 131.525 25.904C131.453 27.848 131.453 29.792 131.453 31.376V42.608C131.453 45.992 132.893 46.712 134.189 47.144C135.701 47.648 140.021 46.568 141.677 45.488C141.317 48.728 141.317 52.112 141.677 55.352C139.733 56.216 135.485 56.72 133.613 56.72C124.253 56.72 120.509 52.976 120.509 45.056ZM190.589 56.72C178.853 56.72 172.661 47.432 172.661 38C172.661 28.568 178.853 19.28 190.589 19.28C202.325 19.28 208.517 28.568 208.517 38C208.517 47.432 202.325 56.72 190.589 56.72ZM190.589 28.856C185.909 28.856 184.181 34.04 184.181 38C184.181 41.96 185.909 47.144 190.589 47.144C195.269 47.144 196.997 41.96 196.997 38C196.997 34.04 195.269 28.856 190.589 28.856ZM214.967 56C215.687 51.464 216.335 41.672 216.335 31.52V25.976C216.335 16.976 215.687 8.264 214.967 4.376C219.503 4.736 224.111 4.736 228.647 4.376C227.927 8.264 227.279 16.976 227.279 25.976V31.52C227.279 41.672 227.927 51.464 228.647 56C224.111 55.64 219.503 55.64 214.967 56ZM236.711 10.424C236.711 7.184 239.735 4.592 243.407 4.592C247.079 4.592 250.103 7.184 250.103 10.424C250.103 13.664 247.079 16.256 243.407 16.256C239.735 16.256 236.711 13.664 236.711 10.424ZM236.567 56C237.287 52.976 237.935 46.352 237.935 39.512V35.84C237.935 29.72 237.287 23.888 236.567 20C241.103 20.36 245.711 20.36 250.247 20C249.527 23.888 248.879 29.72 248.879 35.84V39.512C248.879 46.352 249.527 52.976 250.247 56C245.711 55.64 241.103 55.64 236.567 56ZM274.655 56.72C262.919 56.72 256.727 47.432 256.727 38C256.727 28.568 262.919 19.28 274.655 19.28C286.391 19.28 292.583 28.568 292.583 38C292.583 47.432 286.391 56.72 274.655 56.72ZM274.655 28.856C269.975 28.856 268.247 34.04 268.247 38C268.247 41.96 269.975 47.144 274.655 47.144C279.335 47.144 281.063 41.96 281.063 38C281.063 34.04 279.335 28.856 274.655 28.856Z" fill="#8490CE"/>
<path d="M19.072 36.992L18.8158 39.981L18.8211 39.9815L19.072 36.992ZM16.552 36.776L16.8082 33.787L13.5264 33.5057L13.5521 36.7994L16.552 36.776ZM17.92 56L17.6827 58.9906L21.6232 59.3033L20.8642 55.424L17.92 56ZM4.24 56L1.27952 55.5147L0.660028 59.2936L4.47735 58.9906L4.24 56ZM4.24 5.6L4.445 2.60701L0.585787 2.34268L1.29015 6.14626L4.24 5.6ZM20.152 4.88L20.0103 1.88335L20.0079 1.88346L20.152 4.88ZM16.552 27.56H13.552V30.2919L16.272 30.5469L16.552 27.56ZM18.856 27.776L19.1545 24.7909L19.1453 24.79L19.136 24.7891L18.856 27.776ZM16.912 14.744V11.744H14.0936L13.9178 14.5569L16.912 14.744ZM38.368 21.296H35.368C35.368 26.3104 33.4954 29.5001 30.8198 31.4404C28.0291 33.4642 23.9871 34.3939 19.3229 34.0025L19.072 36.992L18.8211 39.9815C24.4529 40.4541 30.0589 39.4038 34.3422 36.2976C38.7406 33.1079 41.368 28.0176 41.368 21.296H38.368ZM19.072 36.992L19.3282 34.003L16.8082 33.787L16.552 36.776L16.2958 39.765L18.8158 39.981L19.072 36.992ZM16.552 36.776L13.5521 36.7994C13.6247 46.0977 14.2767 53.0028 14.9758 56.576L17.92 56L20.8642 55.424C20.2673 52.3732 19.6233 45.8863 19.5519 36.7526L16.552 36.776ZM17.92 56L18.1574 53.0094C13.4634 52.6369 8.69664 52.6369 4.00265 53.0094L4.24 56L4.47735 58.9906C8.85536 58.6431 13.3046 58.6431 17.6827 58.9906L17.92 56ZM4.24 56L7.20048 56.4853C7.95865 51.8605 8.608 42.0996 8.608 32.168H5.608H2.608C2.608 41.9644 1.96135 51.3555 1.27952 55.5147L4.24 56ZM5.608 32.168H8.608V26.768H5.608H2.608V32.168H5.608ZM5.608 26.768H8.608C8.608 17.9082 7.95831 9.20342 7.18985 5.05373L4.24 5.6L1.29015 6.14626C1.96169 9.77258 2.608 18.0598 2.608 26.768H5.608ZM4.24 5.6L4.035 8.59298C6.86346 8.78671 9.12768 8.68693 11.5848 8.50149C14.05 8.31543 16.6052 8.05398 20.2961 7.87654L20.152 4.88L20.0079 1.88346C16.2108 2.06601 13.438 2.34456 11.1332 2.5185C8.82032 2.69306 6.87254 2.77328 4.445 2.60701L4.24 5.6ZM20.152 4.88L20.2937 7.87665C25.0292 7.65267 28.7669 8.90913 31.2814 11.1075C33.76 13.2746 35.368 16.6316 35.368 21.296H38.368H41.368C41.368 15.1604 39.196 10.0574 35.2306 6.59049C31.3011 3.15486 25.9308 1.60332 20.0103 1.88335L20.152 4.88ZM16.552 27.56L16.272 30.5469L18.576 30.7629L18.856 27.776L19.136 24.7891L16.832 24.5731L16.552 27.56ZM18.856 27.776L18.5575 30.7611C21.3363 31.039 24.108 30.4111 26.2577 28.8187C28.4663 27.1827 29.848 24.6389 29.848 21.584H26.848H23.848C23.848 22.7051 23.3937 23.4733 22.6863 23.9973C21.92 24.5649 20.6957 24.945 19.1545 24.7909L18.856 27.776ZM26.848 21.584H29.848C29.848 19.1846 29.2159 16.7093 27.5723 14.7847C25.8669 12.7878 23.3782 11.744 20.44 11.744V14.744V17.744C21.8938 17.744 22.6091 18.2122 23.0097 18.6813C23.4721 19.2227 23.848 20.1674 23.848 21.584H26.848ZM20.44 14.744V11.744H16.912V14.744V17.744H20.44V14.744ZM16.912 14.744L13.9178 14.5569C13.6972 18.0865 13.552 23.1901 13.552 27.56H16.552H19.552C19.552 23.2899 19.6948 18.3135 19.9062 14.9311L16.912 14.744ZM60.6092 56.72V53.72C55.6068 53.72 51.9575 51.7727 49.5175 48.9393C47.0278 46.0484 45.6812 42.089 45.6812 38H42.6812H39.6812C39.6812 43.343 41.4307 48.7436 44.971 52.8547C48.561 57.0233 53.8757 59.72 60.6092 59.72V56.72ZM42.6812 38H45.6812C45.6812 33.911 47.0278 29.9516 49.5175 27.0607C51.9575 24.2273 55.6068 22.28 60.6092 22.28V19.28V16.28C53.8757 16.28 48.561 18.9767 44.971 23.1453C41.4307 27.2564 39.6812 32.657 39.6812 38H42.6812ZM60.6092 19.28V22.28C65.6117 22.28 69.261 24.2273 71.701 27.0607C74.1907 29.9516 75.5372 33.911 75.5372 38H78.5372H81.5372C81.5372 32.657 79.7878 27.2564 76.2475 23.1453C72.6575 18.9767 67.3428 16.28 60.6092 16.28V19.28ZM78.5372 38H75.5372C75.5372 42.089 74.1907 46.0484 71.701 48.9393C69.261 51.7727 65.6117 53.72 60.6092 53.72V56.72V59.72C67.3428 59.72 72.6575 57.0233 76.2475 52.8547C79.7878 48.7436 81.5372 43.343 81.5372 38H78.5372ZM60.6092 28.856V25.856C56.9192 25.856 54.443 27.9936 53.0415 30.4616C51.6987 32.8264 51.2012 35.6619 51.2012 38H54.2012H57.2012C57.2012 36.3781 57.5678 34.6416 58.259 33.4244C58.8915 32.3104 59.6193 31.856 60.6092 31.856V28.856ZM54.2012 38H51.2012C51.2012 40.3381 51.6987 43.1736 53.0415 45.5384C54.443 48.0064 56.9192 50.144 60.6092 50.144V47.144V44.144C59.6193 44.144 58.8915 43.6896 58.259 42.5756C57.5678 41.3584 57.2012 39.6219 57.2012 38H54.2012ZM60.6092 47.144V50.144C64.2993 50.144 66.7756 48.0064 68.177 45.5384C69.5198 43.1736 70.0173 40.3381 70.0173 38H67.0173H64.0173C64.0173 39.6219 63.6507 41.3584 62.9595 42.5756C62.327 43.6896 61.5992 44.144 60.6092 44.144V47.144ZM67.0173 38H70.0173C70.0173 35.6619 69.5198 32.8264 68.177 30.4616C66.7755 27.9936 64.2993 25.856 60.6092 25.856V28.856V31.856C61.5992 31.856 62.327 32.3104 62.9595 33.4244C63.6507 34.6416 64.0173 36.3781 64.0173 38H67.0173ZM103.779 34.76H100.779V38.5652L104.479 37.6772L103.779 34.76ZM97.4429 31.952L100.433 32.2011L100.436 32.1622L100.438 32.1231L97.4429 31.952ZM98.6669 56L98.4295 58.9906L102.589 59.3207L101.577 55.2724L98.6669 56ZM84.9869 56L82.0685 55.3051L81.1133 59.3169L85.2242 58.9906L84.9869 56ZM84.9869 20L85.2242 17.0094L81.3247 16.6999L82.037 20.5463L84.9869 20ZM98.6669 20L101.609 20.5884L102.387 16.6953L98.4295 17.0094L98.6669 20ZM98.3069 22.232L95.3192 21.9604L94.6969 28.8058L100.139 24.6073L98.3069 22.232ZM114.723 33.32L114.843 36.3176L117.723 36.2024V33.32H114.723ZM103.779 34.76H106.779C106.779 32.0221 106.626 29.5888 105.886 27.7937C105.478 26.8024 104.825 25.8334 103.779 25.1505C102.742 24.4732 101.616 24.272 100.611 24.272V27.272V30.272C100.83 30.272 100.712 30.3138 100.498 30.1742C100.276 30.0291 100.262 29.8926 100.339 30.0803C100.431 30.3026 100.555 30.7534 100.646 31.579C100.735 32.3868 100.779 33.426 100.779 34.76H103.779ZM100.611 27.272V24.272C98.2716 24.272 96.5722 25.4896 95.6088 27.1845C94.7762 28.6492 94.5278 30.3806 94.4478 31.7808L97.4429 31.952L100.438 32.1231C100.468 31.6026 100.524 31.1637 100.603 30.8084C100.684 30.4467 100.772 30.2434 100.825 30.1495C100.871 30.0693 100.854 30.1317 100.734 30.2051C100.603 30.2859 100.524 30.272 100.611 30.272V27.272ZM97.4429 31.952L94.4532 31.7029C94.2973 33.5745 94.2989 35.3526 94.2989 36.992H97.2989H100.299C100.299 35.3194 100.3 33.7855 100.433 32.2011L97.4429 31.952ZM97.2989 36.992H94.2989V40.52H97.2989H100.299V36.992H97.2989ZM97.2989 40.52H94.2989C94.2989 47.039 94.9514 53.5074 95.7564 56.7276L98.6669 56L101.577 55.2724C100.942 52.7326 100.299 46.817 100.299 40.52H97.2989ZM98.6669 56L98.9042 53.0094C94.2102 52.6369 89.4435 52.6369 84.7495 53.0094L84.9869 56L85.2242 58.9906C89.6022 58.6431 94.0515 58.6431 98.4295 58.9906L98.6669 56ZM84.9869 56L87.9053 56.6949C88.7038 53.3411 89.3549 46.4505 89.3549 39.512H86.3549H83.3549C83.3549 46.2535 82.7099 52.6109 82.0685 55.3051L84.9869 56ZM86.3549 39.512H89.3549V35.84H86.3549H83.3549V39.512H86.3549ZM86.3549 35.84H89.3549C89.3549 29.532 88.6892 23.5171 87.9367 19.4537L84.9869 20L82.037 20.5463C82.7245 24.2589 83.3549 29.908 83.3549 35.84H86.3549ZM84.9869 20L84.7495 22.9906C89.4435 23.3631 94.2102 23.3631 98.9042 22.9906L98.6669 20L98.4295 17.0094C94.0515 17.3569 89.6022 17.3569 85.2242 17.0094L84.9869 20ZM98.6669 20L95.7251 19.4116C95.5845 20.1147 95.4078 20.9855 95.3192 21.9604L98.3069 22.232L101.295 22.5036C101.35 21.8945 101.461 21.3253 101.609 20.5884L98.6669 20ZM98.3069 22.232L100.139 24.6073C102.17 23.041 104.701 22.28 106.371 22.28V19.28V16.28C103.288 16.28 99.4841 17.535 96.4745 19.8567L98.3069 22.232ZM106.371 19.28V22.28C107.558 22.28 108.336 22.5207 108.871 22.8319C109.398 23.138 109.878 23.6215 110.303 24.4183C111.224 26.1439 111.723 29.0215 111.723 33.32H114.723H117.723C117.723 28.8345 117.25 24.6921 115.597 21.5937C114.735 19.9785 113.528 18.599 111.887 17.6451C110.256 16.6963 108.388 16.28 106.371 16.28V19.28ZM114.723 33.32L114.603 30.3224C110.854 30.4724 106.91 30.9234 103.079 31.8428L103.779 34.76L104.479 37.6772C107.848 36.8686 111.392 36.4556 114.843 36.3176L114.723 33.32ZM120.509 45.056L117.511 44.9533L117.509 45.0046V45.056H120.509ZM120.509 12.8L119.698 9.91163L117.433 10.5474L117.51 12.8986L120.509 12.8ZM132.965 8.264L135.875 8.9916L137.386 2.95013L131.72 5.53454L132.965 8.264ZM131.741 20.36L128.746 20.1912L128.575 23.2192L131.605 23.3569L131.741 20.36ZM151.037 20.216L151.241 23.2091L152.143 17.4275L151.037 20.216ZM146.645 9.632L143.771 8.76995L143.768 8.78096L143.765 8.792L146.645 9.632ZM158.309 3.656L158.523 0.66362L158.522 0.66362L158.309 3.656ZM165.869 4.736L168.863 4.91567L169.02 2.30682L166.457 1.79426L165.869 4.736ZM165.869 14.528L164.527 17.2113L169.315 19.6052L168.858 14.2718L165.869 14.528ZM156.869 17.336L159.51 15.9137L159.477 15.8523L159.441 15.7925L156.869 17.336ZM160.037 20.216L158.493 22.7885L159.206 23.216H160.037V20.216ZM168.029 20L170.982 20.5274L171.649 16.7943L167.862 17.0046L168.029 20ZM168.029 26.192L167.853 29.1868L171.651 29.4102L170.982 25.6646L168.029 26.192ZM160.541 25.976V22.976H157.578L157.541 25.9385L160.541 25.976ZM162.053 56L161.815 58.9906L165.636 59.2938L165.013 55.5121L162.053 56ZM148.373 56L145.411 55.5209L144.801 59.2929L148.61 58.9906L148.373 56ZM149.741 25.976H152.741V23.1513L149.921 22.9814L149.741 25.976ZM131.525 25.904L131.344 22.9094L128.628 23.0731L128.527 25.793L131.525 25.904ZM134.189 47.144L133.24 49.9901L134.189 47.144ZM141.677 45.488L144.658 45.8193L145.36 39.5042L140.038 42.9752L141.677 45.488ZM141.677 55.352L142.895 58.0934L144.901 57.2021L144.658 55.0207L141.677 55.352ZM120.509 45.056L123.507 45.1587C123.869 34.5769 123.869 23.7097 123.507 12.7014L120.509 12.8L117.51 12.8986C117.868 23.7783 117.868 34.5111 117.511 44.9533L120.509 45.056ZM120.509 12.8L121.32 15.6884C125.559 14.4984 129.953 12.9351 134.21 10.9935L132.965 8.264L131.72 5.53454C127.768 7.33691 123.667 8.79756 119.698 9.91163L120.509 12.8ZM132.965 8.264L130.054 7.53639C129.467 9.88574 129.028 15.1683 128.746 20.1912L131.741 20.36L134.736 20.5287C135.029 15.3277 135.455 10.6742 135.875 8.9916L132.965 8.264ZM131.741 20.36L131.605 23.3569C138.03 23.649 144.77 23.6503 151.241 23.2091L151.037 20.216L150.833 17.2229C144.632 17.6457 138.124 17.647 131.877 17.3631L131.741 20.36ZM151.037 20.216L152.143 17.4275C150.854 16.9161 150.045 15.9203 149.61 14.6041C149.154 13.2218 149.182 11.6479 149.525 10.472L146.645 9.632L143.765 8.792C143.1 11.0721 143.056 13.8902 143.913 16.4859C144.792 19.1477 146.683 21.7159 149.93 23.0045L151.037 20.216ZM146.645 9.632L149.518 10.494C150.227 8.1313 152.691 6.26239 158.095 6.64837L158.309 3.656L158.522 0.66362C151.83 0.185601 145.654 2.4927 143.771 8.76995L146.645 9.632ZM158.309 3.656L158.095 6.64837C159.95 6.78091 163.204 7.26255 165.28 7.67774L165.869 4.736L166.457 1.79426C164.213 1.34544 160.699 0.81909 158.523 0.66362L158.309 3.656ZM165.869 4.736L162.874 4.55632C162.653 8.24587 162.647 12.0726 162.88 14.7842L165.869 14.528L168.858 14.2718C168.658 11.9434 168.653 8.42613 168.863 4.91567L165.869 4.736ZM165.869 14.528L167.21 11.8447C166.145 11.3118 164.62 10.8892 163.361 10.6094C162.095 10.3283 160.628 10.088 159.605 10.088V13.088V16.088C159.949 16.088 160.894 16.2077 162.059 16.4666C163.23 16.7268 164.153 17.0242 164.527 17.2113L165.869 14.528ZM159.605 13.088V10.088C154.835 10.088 151.938 14.9492 154.296 18.8795L156.869 17.336L159.441 15.7925C159.459 15.8222 159.476 15.8742 159.476 15.9339C159.476 15.9879 159.461 16.0319 159.442 16.0641C159.421 16.0997 159.397 16.1163 159.392 16.1193C159.382 16.1247 159.438 16.088 159.605 16.088V13.088ZM156.869 17.336L154.227 18.7583C154.744 19.7181 155.606 20.5659 156.256 21.1375C156.972 21.7663 157.783 22.3623 158.493 22.7885L160.037 20.216L161.58 17.6435C161.211 17.4217 160.69 17.0457 160.217 16.6305C159.986 16.4272 159.796 16.2406 159.657 16.086C159.504 15.9152 159.48 15.8577 159.51 15.9137L156.869 17.336ZM160.037 20.216V23.216C162.753 23.216 165.544 23.1427 168.195 22.9954L168.029 20L167.862 17.0046C165.329 17.1453 162.649 17.216 160.037 17.216V20.216ZM168.029 20L165.075 19.4726C164.653 21.8374 164.653 24.3545 165.075 26.7194L168.029 26.192L170.982 25.6646C170.684 23.9974 170.684 22.1945 170.982 20.5274L168.029 20ZM168.029 26.192L168.205 23.1972C165.696 23.0496 163.117 22.976 160.541 22.976V25.976V28.976C163.004 28.976 165.466 29.0464 167.853 29.1868L168.029 26.192ZM160.541 25.976L157.541 25.9385C157.396 37.5161 157.97 49.6752 159.093 56.4879L162.053 56L165.013 55.5121C163.976 49.2208 163.397 37.4759 163.541 26.0135L160.541 25.976ZM162.053 56L162.29 53.0094C157.596 52.6369 152.829 52.6369 148.135 53.0094L148.373 56L148.61 58.9906C152.988 58.6431 157.437 58.6431 161.815 58.9906L162.053 56ZM148.373 56L151.334 56.4791C152.165 51.3428 152.741 40.856 152.741 31.52H149.741H146.741C146.741 40.76 146.164 50.8652 145.411 55.5209L148.373 56ZM149.741 31.52H152.741V25.976H149.741H146.741V31.52H149.741ZM149.741 25.976L149.921 22.9814C143.85 22.6157 137.463 22.5408 131.344 22.9094L131.525 25.904L131.705 28.8986C137.539 28.5472 143.68 28.6163 149.56 28.9706L149.741 25.976ZM131.525 25.904L128.527 25.793C128.452 27.8008 128.453 29.7986 128.453 31.376H131.453H134.453C134.453 29.7854 134.453 27.8952 134.523 26.015L131.525 25.904ZM131.453 31.376H128.453V42.608H131.453H134.453V31.376H131.453ZM131.453 42.608H128.453C128.453 44.6987 128.896 46.478 129.986 47.8492C131.071 49.2149 132.459 49.7298 133.24 49.9901L134.189 47.144L135.137 44.298C134.622 44.1262 134.643 44.0651 134.684 44.1168C134.729 44.174 134.453 43.9013 134.453 42.608H131.453ZM134.189 47.144L133.24 49.9901C134.197 50.3089 135.235 50.2966 135.983 50.2417C136.819 50.1804 137.709 50.0288 138.556 49.8326C140.16 49.461 142.053 48.8243 143.316 48.0008L141.677 45.488L140.038 42.9752C139.645 43.2317 138.55 43.675 137.202 43.9874C136.572 44.1332 135.996 44.2246 135.544 44.2578C135.005 44.2974 134.937 44.2311 135.137 44.298L134.189 47.144ZM141.677 45.488L138.695 45.1567C138.311 48.6169 138.311 52.2231 138.695 55.6833L141.677 55.352L144.658 55.0207C144.323 52.0009 144.323 48.8391 144.658 45.8193L141.677 45.488ZM141.677 55.352L140.458 52.6106C139.877 52.8689 138.668 53.1658 137.167 53.3941C135.725 53.6133 134.353 53.72 133.613 53.72V56.72V59.72C134.744 59.72 136.432 59.5747 138.069 59.3259C139.645 59.0862 141.532 58.6991 142.895 58.0934L141.677 55.352ZM133.613 56.72V53.72C129.236 53.72 126.87 52.8278 125.575 51.6442C124.345 50.5192 123.509 48.595 123.509 45.056H120.509H117.509C117.509 49.437 118.544 53.3448 121.526 56.0718C124.444 58.7402 128.63 59.72 133.613 59.72V56.72ZM190.589 56.72V53.72C185.586 53.72 181.937 51.7727 179.497 48.9393C177.008 46.0484 175.661 42.089 175.661 38H172.661H169.661C169.661 43.343 171.41 48.7436 174.951 52.8547C178.541 57.0233 183.855 59.72 190.589 59.72V56.72ZM172.661 38H175.661C175.661 33.911 177.008 29.9516 179.497 27.0607C181.937 24.2273 185.586 22.28 190.589 22.28V19.28V16.28C183.855 16.28 178.541 18.9767 174.951 23.1453C171.41 27.2564 169.661 32.657 169.661 38H172.661ZM190.589 19.28V22.28C195.591 22.28 199.241 24.2273 201.681 27.0607C204.17 29.9516 205.517 33.911 205.517 38H208.517H211.517C211.517 32.657 209.768 27.2564 206.227 23.1453C202.637 18.9767 197.322 16.28 190.589 16.28V19.28ZM208.517 38H205.517C205.517 42.089 204.17 46.0484 201.681 48.9393C199.241 51.7727 195.591 53.72 190.589 53.72V56.72V59.72C197.322 59.72 202.637 57.0233 206.227 52.8547C209.768 48.7436 211.517 43.343 211.517 38H208.517ZM190.589 28.856V25.856C186.899 25.856 184.423 27.9936 183.021 30.4616C181.678 32.8264 181.181 35.6619 181.181 38H184.181H187.181C187.181 36.3781 187.547 34.6416 188.239 33.4244C188.871 32.3104 189.599 31.856 190.589 31.856V28.856ZM184.181 38H181.181C181.181 40.3381 181.678 43.1736 183.021 45.5384C184.423 48.0064 186.899 50.144 190.589 50.144V47.144V44.144C189.599 44.144 188.871 43.6896 188.239 42.5756C187.547 41.3584 187.181 39.6219 187.181 38H184.181ZM190.589 47.144V50.144C194.279 50.144 196.755 48.0064 198.157 45.5384C199.499 43.1736 199.997 40.3381 199.997 38H196.997H193.997C193.997 39.6219 193.63 41.3584 192.939 42.5756C192.307 43.6896 191.579 44.144 190.589 44.144V47.144ZM196.997 38H199.997C199.997 35.6619 199.499 32.8264 198.157 30.4616C196.755 27.9936 194.279 25.856 190.589 25.856V28.856V31.856C191.579 31.856 192.307 32.3104 192.939 33.4244C193.63 34.6416 193.997 36.3781 193.997 38H196.997ZM214.967 56L212.004 55.5297L211.406 59.292L215.204 58.9906L214.967 56ZM214.967 4.376L215.204 1.3854L211.304 1.07592L212.017 4.92227L214.967 4.376ZM228.647 4.376L231.596 4.92227L232.309 1.07592L228.409 1.3854L228.647 4.376ZM228.647 56L228.409 58.9906L232.207 59.292L231.609 55.5297L228.647 56ZM214.967 56L217.929 56.4703C218.685 51.7097 219.335 41.7393 219.335 31.52H216.335H213.335C213.335 41.6047 212.688 51.2183 212.004 55.5297L214.967 56ZM216.335 31.52H219.335V25.976H216.335H213.335V31.52H216.335ZM216.335 25.976H219.335C219.335 16.9076 218.686 7.98361 217.916 3.82973L214.967 4.376L212.017 4.92227C212.687 8.54438 213.335 17.0444 213.335 25.976H216.335ZM214.967 4.376L214.729 7.3666C219.423 7.73913 224.19 7.73913 228.884 7.3666L228.647 4.376L228.409 1.3854C224.031 1.73286 219.582 1.73286 215.204 1.3854L214.967 4.376ZM228.647 4.376L225.697 3.82973C224.927 7.98361 224.279 16.9076 224.279 25.976H227.279H230.279C230.279 17.0444 230.926 8.54438 231.596 4.92227L228.647 4.376ZM227.279 25.976H224.279V31.52H227.279H230.279V25.976H227.279ZM227.279 31.52H224.279C224.279 41.7393 224.928 51.7097 225.684 56.4703L228.647 56L231.609 55.5297C230.925 51.2183 230.279 41.6047 230.279 31.52H227.279ZM228.647 56L228.884 53.0094C224.19 52.6369 219.423 52.6369 214.729 53.0094L214.967 56L215.204 58.9906C219.582 58.6431 224.031 58.6431 228.409 58.9906L228.647 56ZM236.567 56L233.648 55.3051L232.693 59.3169L236.804 58.9906L236.567 56ZM236.567 20L236.804 17.0094L232.904 16.6999L233.617 20.5463L236.567 20ZM250.247 20L253.196 20.5463L253.909 16.6999L250.009 17.0094L250.247 20ZM250.247 56L250.009 58.9906L254.12 59.3169L253.165 55.3051L250.247 56ZM236.711 10.424H239.711C239.711 9.22951 240.974 7.592 243.407 7.592V4.592V1.592C238.495 1.592 233.711 5.13849 233.711 10.424H236.711ZM243.407 4.592V7.592C245.839 7.592 247.103 9.22951 247.103 10.424H250.103H253.103C253.103 5.13849 248.318 1.592 243.407 1.592V4.592ZM250.103 10.424H247.103C247.103 11.6185 245.839 13.256 243.407 13.256V16.256V19.256C248.318 19.256 253.103 15.7095 253.103 10.424H250.103ZM243.407 16.256V13.256C240.974 13.256 239.711 11.6185 239.711 10.424H236.711H233.711C233.711 15.7095 238.495 19.256 243.407 19.256V16.256ZM236.567 56L239.485 56.6949C240.284 53.3411 240.935 46.4505 240.935 39.512H237.935H234.935C234.935 46.2535 234.29 52.6109 233.648 55.3051L236.567 56ZM237.935 39.512H240.935V35.84H237.935H234.935V39.512H237.935ZM237.935 35.84H240.935C240.935 29.532 240.269 23.5171 239.516 19.4537L236.567 20L233.617 20.5463C234.304 24.2589 234.935 29.908 234.935 35.84H237.935ZM236.567 20L236.329 22.9906C241.023 23.3631 245.79 23.3631 250.484 22.9906L250.247 20L250.009 17.0094C245.631 17.3569 241.182 17.3569 236.804 17.0094L236.567 20ZM250.247 20L247.297 19.4537C246.544 23.5171 245.879 29.532 245.879 35.84H248.879H251.879C251.879 29.908 252.509 24.2589 253.196 20.5463L250.247 20ZM248.879 35.84H245.879V39.512H248.879H251.879V35.84H248.879ZM248.879 39.512H245.879C245.879 46.4505 246.53 53.3411 247.328 56.6949L250.247 56L253.165 55.3051C252.523 52.6109 251.879 46.2535 251.879 39.512H248.879ZM250.247 56L250.484 53.0094C245.79 52.6369 241.023 52.6369 236.329 53.0094L236.567 56L236.804 58.9906C241.182 58.6431 245.631 58.6431 250.009 58.9906L250.247 56ZM274.655 56.72V53.72C269.652 53.72 266.003 51.7727 263.563 48.9393C261.073 46.0484 259.727 42.089 259.727 38H256.727H253.727C253.727 43.343 255.476 48.7436 259.016 52.8547C262.606 57.0233 267.921 59.72 274.655 59.72V56.72ZM256.727 38H259.727C259.727 33.911 261.073 29.9516 263.563 27.0607C266.003 24.2273 269.652 22.28 274.655 22.28V19.28V16.28C267.921 16.28 262.606 18.9767 259.016 23.1453C255.476 27.2564 253.727 32.657 253.727 38H256.727ZM274.655 19.28V22.28C279.657 22.28 283.306 24.2273 285.746 27.0607C288.236 29.9516 289.583 33.911 289.583 38H292.583H295.583C295.583 32.657 293.833 27.2564 290.293 23.1453C286.703 18.9767 281.388 16.28 274.655 16.28V19.28ZM292.583 38H289.583C289.583 42.089 288.236 46.0484 285.746 48.9393C283.306 51.7727 279.657 53.72 274.655 53.72V56.72V59.72C281.388 59.72 286.703 57.0233 290.293 52.8547C293.833 48.7436 295.583 43.343 295.583 38H292.583ZM274.655 28.856V25.856C270.965 25.856 268.488 27.9936 267.087 30.4616C265.744 32.8264 265.247 35.6619 265.247 38H268.247H271.247C271.247 36.3781 271.613 34.6416 272.304 33.4244C272.937 32.3104 273.665 31.856 274.655 31.856V28.856ZM268.247 38H265.247C265.247 40.3381 265.744 43.1736 267.087 45.5384C268.488 48.0064 270.965 50.144 274.655 50.144V47.144V44.144C273.665 44.144 272.937 43.6896 272.304 42.5756C271.613 41.3584 271.247 39.6219 271.247 38H268.247ZM274.655 47.144V50.144C278.345 50.144 280.821 48.0064 282.222 45.5384C283.565 43.1736 284.063 40.3381 284.063 38H281.063H278.063C278.063 39.6219 277.696 41.3584 277.005 42.5756C276.372 43.6896 275.645 44.144 274.655 44.144V47.144ZM281.063 38H284.063C284.063 35.6619 283.565 32.8264 282.222 30.4616C280.821 27.9936 278.345 25.856 274.655 25.856V28.856V31.856C275.645 31.856 276.372 32.3104 277.005 33.4244C277.696 34.6416 278.063 36.3781 278.063 38H281.063Z" fill="url(#paint0_linear_156_103)" mask="url(#path-1-outside-1_156_103)"/>
<defs>
<linearGradient id="paint0_linear_156_103" x1="142.892" y1="-24.2522" x2="142.892" y2="77" gradientUnits="userSpaceOnUse">
<stop stop-color="#222C73"/>
<stop offset="1" stop-color="#4053D9"/>
</linearGradient>
</defs>
</svg>
